<svg width="112" height="112" viewBox="0 0 112 112" fill="none" xmlns="http://www.w3.org/2000/svg">
    <circle cx="56" cy="56" r="56" fill="white"/>
    <g clip-path="url(#clip0_0_1)">
    <path fill-rule="evenodd" clip-rule="evenodd" d="M81 36.4249L81.0844 33.9155L78.575 33.9999L74.4844 34.1437C69.5266 34.3144 64.6683 35.581 60.2582 37.8525C55.8482 40.124 51.9959 43.344 48.9781 47.2812H42.4594C40.449 47.2811 38.5022 47.9858 36.9577 49.2728C35.4132 50.5598 34.3689 52.3475 34.0063 54.3249L31.5063 67.9499L31 70.7187H39.4062L44.2812 75.5937V83.9999L47.0469 83.4937L60.6719 80.9937C62.6499 80.6317 64.4383 79.5876 65.7259 78.0431C67.0135 76.4985 67.7187 74.5514 67.7188 72.5405V66.0218C71.6559 63.004 74.8759 59.1518 77.1474 54.7417C79.4189 50.3316 80.6855 45.4733 80.8563 40.5155L81 36.4218V36.4249ZM60.2125 65.2124L47.0875 71.7749L43.2281 67.9124L49.7906 54.7874C52.1159 50.138 55.6519 46.2017 60.0263 43.393C64.4007 40.5844 69.4515 39.0073 74.6469 38.828L76.2281 38.7718L76.1719 40.353C75.9931 45.5489 74.4163 50.6004 71.6077 54.9754C68.799 59.3504 64.8624 62.8869 60.2125 65.2124ZM48.9688 78.3749V76.0749L62.3062 69.403L63.0312 69.0405V72.5405C63.0316 73.4548 62.7112 74.3402 62.1259 75.0425C61.5406 75.7449 60.7275 76.2197 59.8281 76.3843L48.9688 78.3749ZM38.925 66.0312L45.5969 52.6937L45.9562 51.9687H42.4562C41.5425 51.9691 40.6579 52.2898 39.9562 52.875C39.2544 53.4603 38.7801 54.273 38.6156 55.1718L36.625 66.0312H38.925ZM63.8125 52.7499C63.8125 53.1643 63.6479 53.5617 63.3549 53.8548C63.0618 54.1478 62.6644 54.3124 62.25 54.3124C61.8356 54.3124 61.4382 54.1478 61.1451 53.8548C60.8521 53.5617 60.6875 53.1643 60.6875 52.7499C60.6875 52.3355 60.8521 51.9381 61.1451 51.645C61.4382 51.352 61.8356 51.1874 62.25 51.1874C62.6644 51.1874 63.0618 51.352 63.3549 51.645C63.6479 51.9381 63.8125 52.3355 63.8125 52.7499ZM68.5 52.7499C68.5 54.4075 67.8415 55.9972 66.6694 57.1693C65.4973 58.3414 63.9076 58.9999 62.25 58.9999C60.5924 58.9999 59.0027 58.3414 57.8306 57.1693C56.6585 55.9972 56 54.4075 56 52.7499C56 51.0923 56.6585 49.5026 57.8306 48.3305C59.0027 47.1584 60.5924 46.4999 62.25 46.4999C63.9076 46.4999 65.4973 47.1584 66.6694 48.3305C67.8415 49.5026 68.5 51.0923 68.5 52.7499Z" fill="#4AC9C9"/>
    </g>
    <defs>
    <clipPath id="clip0_0_1">
    <rect width="50" height="50" fill="white" transform="translate(31 34)"/>
    </clipPath>
    </defs>
    </svg>
    