<svg width="40" height="40" viewBox="0 0 40 40" fill="none" xmlns="http://www.w3.org/2000/svg">
    <g clip-path="url(#clip0_371_726)">
    <path d="M25.2502 31.1333C25.2081 31.2462 25.2081 31.3705 25.2502 31.4833C25.2907 31.532 25.3418 31.5708 25.3996 31.5968C25.4573 31.6228 25.5203 31.6353 25.5836 31.6333C25.64 31.6326 25.6957 31.6204 25.7472 31.5975C25.7988 31.5745 25.8452 31.5414 25.8836 31.5L32.5502 24.5333C33.0612 23.9093 33.3042 23.1084 33.2262 22.3056C33.1481 21.5029 32.7552 20.7638 32.1336 20.25C31.5736 19.801 30.9236 19.4778 30.2276 19.3023C29.5317 19.1269 28.8061 19.1034 28.1002 19.2333C28.0159 19.2422 27.9365 19.2776 27.8735 19.3345C27.8106 19.3915 27.7674 19.4669 27.7502 19.55L25.2502 31.1333ZM12.1669 19.5833C12.1529 19.4972 12.1111 19.418 12.0479 19.3578C11.9847 19.2976 11.9036 19.2598 11.8169 19.25C11.1132 19.1261 10.3914 19.1495 9.69712 19.3187C9.00289 19.488 8.35131 19.7994 7.78356 20.2333C7.47104 20.4948 7.21343 20.8156 7.02565 21.1772C6.83786 21.5389 6.72362 21.9341 6.68952 22.3402C6.65543 22.7462 6.70216 23.155 6.827 23.5429C6.95185 23.9308 7.15235 24.2901 7.4169 24.6L13.9502 31.5C13.9886 31.5414 14.035 31.5745 14.0865 31.5975C14.1381 31.6204 14.1938 31.6326 14.2502 31.6333C14.3107 31.6328 14.3704 31.6191 14.4251 31.5932C14.4798 31.5673 14.5282 31.5298 14.5669 31.4833C14.6084 31.4363 14.6376 31.3797 14.6522 31.3187C14.6667 31.2577 14.666 31.194 14.6502 31.1333L12.1669 19.5833ZM15.4169 34.1667C12.936 34.3406 10.5999 35.3992 8.83356 37.15C8.5995 37.3825 8.43971 37.6793 8.37444 38.0027C8.30917 38.3261 8.34134 38.6616 8.4669 38.9667C8.59193 39.271 8.80426 39.5316 9.07713 39.7155C9.34999 39.8994 9.67119 39.9984 10.0002 40H30.0002C30.3274 39.9997 30.6472 39.9032 30.9199 39.7224C31.1925 39.5416 31.406 39.2846 31.5336 38.9833C31.6597 38.6835 31.6954 38.3533 31.6362 38.0335C31.5769 37.7136 31.4254 37.4181 31.2002 37.1833C29.4389 35.3716 27.0571 34.2939 24.5336 34.1667C23.8002 34.1167 16.2336 34.1167 15.4169 34.1667ZM15.0002 5C15.0002 6.32608 15.527 7.59785 16.4647 8.53553C17.4024 9.47322 18.6741 10 20.0002 10C21.3263 10 22.5981 9.47322 23.5358 8.53553C24.4734 7.59785 25.0002 6.32608 25.0002 5C25.0002 3.67392 24.4734 2.40215 23.5358 1.46447C22.5981 0.526784 21.3263 0 20.0002 0C18.6741 0 17.4024 0.526784 16.4647 1.46447C15.527 2.40215 15.0002 3.67392 15.0002 5ZM26.2836 15C26.3157 14.8525 26.3079 14.699 26.261 14.5555C26.2141 14.412 26.1299 14.2835 26.0169 14.1833C25.9007 14.0859 25.7602 14.022 25.6104 13.9985C25.4607 13.975 25.3073 13.9928 25.1669 14.05C21.8459 15.3841 18.1379 15.3841 14.8169 14.05C14.675 13.995 14.5208 13.9799 14.371 14.0064C14.2211 14.0328 14.0814 14.0998 13.9669 14.2C13.8553 14.2972 13.7729 14.4234 13.7287 14.5646C13.6846 14.7059 13.6805 14.8566 13.7169 15L17.3336 31.3167C17.3582 31.405 17.4101 31.4832 17.482 31.5401C17.5539 31.597 17.642 31.6296 17.7336 31.6333H22.2502C22.3447 31.6332 22.4365 31.6022 22.5118 31.545C22.587 31.4878 22.6415 31.4077 22.6669 31.3167L26.2836 15Z" fill="url(#paint0_linear_371_726)"/>
    <path d="M25.2502 31.1333C25.2081 31.2462 25.2081 31.3705 25.2502 31.4833C25.2907 31.532 25.3418 31.5708 25.3996 31.5968C25.4573 31.6228 25.5203 31.6353 25.5836 31.6333C25.64 31.6326 25.6957 31.6204 25.7472 31.5975C25.7988 31.5745 25.8452 31.5414 25.8836 31.5L32.5502 24.5333C33.0612 23.9093 33.3042 23.1084 33.2262 22.3056C33.1481 21.5029 32.7552 20.7638 32.1336 20.25C31.5736 19.801 30.9236 19.4778 30.2276 19.3023C29.5317 19.1269 28.8061 19.1034 28.1002 19.2333C28.0159 19.2422 27.9365 19.2776 27.8735 19.3345C27.8106 19.3915 27.7674 19.4669 27.7502 19.55L25.2502 31.1333ZM12.1669 19.5833C12.1529 19.4972 12.1111 19.418 12.0479 19.3578C11.9847 19.2976 11.9036 19.2598 11.8169 19.25C11.1132 19.1261 10.3914 19.1495 9.69712 19.3187C9.00289 19.488 8.35131 19.7994 7.78356 20.2333C7.47104 20.4948 7.21343 20.8156 7.02565 21.1772C6.83786 21.5389 6.72362 21.9341 6.68952 22.3402C6.65543 22.7462 6.70216 23.155 6.827 23.5429C6.95185 23.9308 7.15235 24.2901 7.4169 24.6L13.9502 31.5C13.9886 31.5414 14.035 31.5745 14.0865 31.5975C14.1381 31.6204 14.1938 31.6326 14.2502 31.6333C14.3107 31.6328 14.3704 31.6191 14.4251 31.5932C14.4798 31.5673 14.5282 31.5298 14.5669 31.4833C14.6084 31.4363 14.6376 31.3797 14.6522 31.3187C14.6667 31.2577 14.666 31.194 14.6502 31.1333L12.1669 19.5833ZM15.4169 34.1667C12.936 34.3406 10.5999 35.3992 8.83356 37.15C8.5995 37.3825 8.43971 37.6793 8.37444 38.0027C8.30917 38.3261 8.34134 38.6616 8.4669 38.9667C8.59193 39.271 8.80426 39.5316 9.07713 39.7155C9.34999 39.8994 9.67119 39.9984 10.0002 40H30.0002C30.3274 39.9997 30.6472 39.9032 30.9199 39.7224C31.1925 39.5416 31.406 39.2846 31.5336 38.9833C31.6597 38.6835 31.6954 38.3533 31.6362 38.0335C31.5769 37.7136 31.4254 37.4181 31.2002 37.1833C29.4389 35.3716 27.0571 34.2939 24.5336 34.1667C23.8002 34.1167 16.2336 34.1167 15.4169 34.1667ZM15.0002 5C15.0002 6.32608 15.527 7.59785 16.4647 8.53553C17.4024 9.47322 18.6741 10 20.0002 10C21.3263 10 22.5981 9.47322 23.5358 8.53553C24.4734 7.59785 25.0002 6.32608 25.0002 5C25.0002 3.67392 24.4734 2.40215 23.5358 1.46447C22.5981 0.526784 21.3263 0 20.0002 0C18.6741 0 17.4024 0.526784 16.4647 1.46447C15.527 2.40215 15.0002 3.67392 15.0002 5ZM26.2836 15C26.3157 14.8525 26.3079 14.699 26.261 14.5555C26.2141 14.412 26.1299 14.2835 26.0169 14.1833C25.9007 14.0859 25.7602 14.022 25.6104 13.9985C25.4607 13.975 25.3073 13.9928 25.1669 14.05C21.8459 15.3841 18.1379 15.3841 14.8169 14.05C14.675 13.995 14.5208 13.9799 14.371 14.0064C14.2211 14.0328 14.0814 14.0998 13.9669 14.2C13.8553 14.2972 13.7729 14.4234 13.7287 14.5646C13.6846 14.7059 13.6805 14.8566 13.7169 15L17.3336 31.3167C17.3582 31.405 17.4101 31.4832 17.482 31.5401C17.5539 31.597 17.642 31.6296 17.7336 31.6333H22.2502C22.3447 31.6332 22.4365 31.6022 22.5118 31.545C22.587 31.4878 22.6415 31.4077 22.6669 31.3167L26.2836 15Z" fill="url(#paint1_linear_371_726)"/>
    </g>
    <defs>
    <linearGradient id="paint0_linear_371_726" x1="1" y1="53.5" x2="33" y2="8.5" gradientUnits="userSpaceOnUse">
    <stop stop-color="#98A2B3"/>
    <stop offset="1" stop-color="#F2F4F7"/>
    </linearGradient>
    <linearGradient id="paint1_linear_371_726" x1="15.5" y1="7" x2="25" y2="55.5" gradientUnits="userSpaceOnUse">
    <stop stop-color="#98A2B3"/>
    <stop offset="1" stop-color="#F2F4F7"/>
    </linearGradient>
    <clipPath id="clip0_371_726">
    <rect width="40" height="40" fill="white"/>
    </clipPath>
    </defs>
    </svg>
    